<?xml version="1.0" encoding="UTF-8"?>
<svg xmlns="http://www.w3.org/2000/svg" viewBox="0 0 1920 600" width="1920" height="600" role="img" aria-label="Animated corporate background">
  <defs>
    <linearGradient id="g" x1="0" y1="0" x2="1" y2="1">
      <stop offset="0%" stop-color="#4F46E5"/>
      <stop offset="100%" stop-color="#2563EB"/>
    </linearGradient>
    <pattern id="grid" width="80" height="80" patternUnits="userSpaceOnUse">
      <path d="M80 0H0V80" fill="none" stroke="#FFFFFF" stroke-opacity="0.06" stroke-width="1"/>
    </pattern>
    <symbol id="dot">
      <circle cx="0" cy="0" r="2" fill="#FFFFFF" opacity="0.55"/>
    </symbol>
    <style>
      @keyframes floatY { 0%{ transform: translateY(0px);} 50%{ transform: translateY(6px);} 100%{ transform: translateY(0px);} }
      @keyframes driftX { 0%{ transform: translateX(-40px);} 100%{ transform: translateX(40px);} }
      @keyframes dash { to { stroke-dashoffset: -400; } }
      .layer-a { animation: floatY 14s ease-in-out infinite; transform-origin: 50% 50%; }
      .layer-b { animation: floatY 18s ease-in-out infinite; transform-origin: 60% 40%; }
      .circuit { stroke:#FFFFFF; stroke-opacity:0.15; stroke-width:2; fill:none; stroke-dasharray:8 10; animation: dash 18s linear infinite; }
      .drift { animation: driftX 24s linear infinite alternate; }
    </style>
  </defs>
  <rect width="100%" height="100%" fill="url(#g)"/>
  <rect width="100%" height="100%" fill="url(#grid)"/>
  <radialGradient id="v" cx="70%" cy="30%" r="65%">
    <stop offset="0%" stop-color="#000" stop-opacity="0"/>
    <stop offset="100%" stop-color="#000" stop-opacity="0.18"/>
  </radialGradient>
  <rect width="100%" height="100%" fill="url(#v)"/>
  <g class="layer-a">
    <path class="circuit" d="M160,160 h260 a20,20 0 0 1 20,20 v40 h80"/>
    <path class="circuit" d="M1720,420 h-280 a20,20 0 0 0 -20,20 v40 h-120"/>
    <path class="circuit" d="M480,480 h180 a18,18 0 0 1 18,18 v36 h90"/>
  </g>
  <g class="layer-b drift">
    <use href="#dot" x="240" y="140"/><use href="#dot" x="320" y="220"/><use href="#dot" x="540" y="180"/>
    <use href="#dot" x="820" y="120"/><use href="#dot" x="980" y="260"/><use href="#dot" x="1360" y="200"/>
    <use href="#dot" x="1560" y="340"/><use href="#dot" x="1180" y="440"/><use href="#dot" x="760" y="420"/>
  </g>
</svg>
